<svg width="860" height="860" viewBox="0 0 860 860" fill="none" xmlns="http://www.w3.org/2000/svg">
<rect x="2.84768" y="2.84768" width="854.305" height="854.305" rx="57.1523" fill="#0C0E0D" stroke="#0C0E0D" stroke-width="5.69536"/>
<path d="M54.1055 452.785H805.894V717.62C805.894 747.502 781.669 771.726 751.788 771.726H108.211C78.3295 771.726 54.1055 747.502 54.1055 717.62V452.785Z" fill="#DADADA" stroke="#0C0E0D" stroke-width="5.69536"/>
<mask id="path-3-inside-1" fill="white">
<path d="M318.94 435.688C318.94 465.143 330.641 493.392 351.469 514.219C372.297 535.047 400.545 546.748 430 546.748C459.455 546.748 487.703 535.047 508.531 514.219C529.359 493.392 541.06 465.143 541.06 435.688L430 435.688L318.94 435.688Z"/>
</mask>
<path d="M318.94 435.688C318.94 465.143 330.641 493.392 351.469 514.219C372.297 535.047 400.545 546.748 430 546.748C459.455 546.748 487.703 535.047 508.531 514.219C529.359 493.392 541.06 465.143 541.06 435.688L430 435.688L318.94 435.688Z" fill="#0C0E0D" stroke="#0C0E0D" stroke-width="11.3907" mask="url(#path-3-inside-1)"/>
<line x1="572.494" y1="538.49" x2="742.505" y2="538.49" stroke="#0C0E0D" stroke-width="15" stroke-linecap="round"/>
<line x1="118.5" y1="616.5" x2="281.5" y2="616.5" stroke="#0C0E0D" stroke-width="15" stroke-linecap="round"/>
<line x1="120.5" y1="567.5" x2="281.5" y2="567.5" stroke="#0C0E0D" stroke-width="15" stroke-linecap="round"/>
<line x1="118.5" y1="665.498" x2="281.5" y2="665.498" stroke="#0C0E0D" stroke-width="15" stroke-linecap="round"/>
<line x1="226.5" y1="707.5" x2="226.5" y2="524.5" stroke="#0C0E0D" stroke-width="15" stroke-linecap="round"/>
<line x1="172.5" y1="707.5" x2="172.5" y2="524.5" stroke="#0C0E0D" stroke-width="15" stroke-linecap="round"/>
<path d="M118.501 531C118.501 524.096 124.097 518.5 131.001 518.5H270.001C276.904 518.5 282.501 524.096 282.501 531V702C282.501 708.904 276.904 714.5 270.001 714.5H131.001C124.097 714.5 118.501 708.904 118.501 702V531Z" stroke="black" stroke-width="15"/>
<path d="M603 546H713V662C713 673.046 704.046 682 693 682H623C611.954 682 603 673.046 603 662V546Z" fill="#828282"/>
<rect x="630" y="546" width="20" height="136" fill="white"/>
</svg>
