<svg width="858" height="858" viewBox="0 0 858 858" fill="none" xmlns="http://www.w3.org/2000/svg">
<path d="M173 64.45C173 42.6624 190.662 25 212.45 25L646.4 25C668.187 25 685.85 42.6624 685.85 64.45V212.387C685.85 261.41 646.109 301.15 597.087 301.15H261.762C212.74 301.15 173 261.41 173 212.387L173 64.45Z" fill="white" stroke="#828282" stroke-width="49.3125" stroke-linecap="round"/>
<path d="M0 232.45C0 210.662 17.6624 193 39.45 193L818.55 193C840.338 193 858 210.662 858 232.45V769.238C858 818.26 818.26 858 769.238 858H88.7625C39.7403 858 0 818.26 0 769.238L0 232.45Z" fill="#DADADA"/>
<rect x="143" y="301" width="572" height="516" rx="40" fill="#828282"/>
<rect x="316" y="351" width="227" height="255" rx="20" fill="#DADADA"/>
<rect x="193" y="656" width="472" height="111" rx="20" fill="#DADADA"/>
<circle cx="786.137" cy="330.738" r="29.5875" fill="#828282"/>
<circle cx="786.137" cy="429.913" r="29.5875" fill="#828282"/>
<circle cx="786.137" cy="529.087" r="29.5875" fill="#828282"/>
</svg>
