<svg width="441" height="370" viewBox="0 0 441 370" fill="none" xmlns="http://www.w3.org/2000/svg">
<path d="M294.027 99.8943C294.027 119.141 283.504 134.743 270.523 134.743C257.543 134.743 247.02 119.141 247.02 99.8943C247.02 80.6479 257.543 58.6367 270.523 58.6367C283.504 58.6367 294.027 80.6479 294.027 99.8943Z" fill="#0C0E0D"/>
<path d="M193.298 99.8943C193.298 119.141 182.775 134.743 169.795 134.743C156.814 134.743 146.292 119.141 146.292 99.8943C146.292 80.6479 156.814 58.6367 169.795 58.6367C182.775 58.6367 193.298 80.6479 193.298 99.8943Z" fill="#0C0E0D"/>
<ellipse cx="222.398" cy="219.804" rx="201.458" ry="109.683" fill="#828282"/>
<path d="M318.65 272.406C318.65 326.182 275.055 369.777 221.279 369.777C167.502 369.777 123.907 326.182 123.907 272.406C123.907 218.629 167.502 157.127 221.279 157.127C275.055 157.127 318.65 218.629 318.65 272.406Z" fill="#DADADA"/>
<path d="M318.65 272.254C318.65 326.031 275.055 369.626 221.279 369.626C167.502 369.626 123.907 326.031 123.907 272.254C123.907 180.479 167.502 235.321 221.279 235.321C275.055 235.321 318.65 218.478 318.65 272.254Z" fill="#0C0E0D"/>
<path d="M340.227 32.8954C335.786 45.7772 343.095 67.5909 343.095 67.5909C343.095 67.5909 353.659 57.8332 370.829 56.3978C384.217 55.2786 400.475 59.7564 400.475 59.7564C400.475 59.7564 402.127 42.5198 398.562 32.8954C392.648 16.9301 380.888 12.818 366.047 13.8688C352.867 14.802 345.167 18.5646 340.227 32.8954Z" fill="#DADADA" stroke="#DADADA" stroke-width="13.4305"/>
<path d="M100.73 26.1805C105.171 39.0623 97.8613 60.876 97.8613 60.876C97.8613 60.876 87.2981 51.1183 70.1281 49.683C56.7397 48.5638 40.4822 53.0416 40.4822 53.0416C40.4822 53.0416 38.8298 35.8049 42.3949 26.1805C48.3088 10.2152 60.0684 6.10316 74.9097 7.15397C88.0896 8.08715 95.7902 11.8498 100.73 26.1805Z" fill="#DADADA" stroke="#DADADA" stroke-width="13.4305"/>
<path d="M344.929 77.555L333.248 125.566L413.275 239.797C413.275 239.797 421.11 223.009 429.451 193.476C436.783 167.518 433.972 150.596 429.451 123.945C425.61 101.301 403.202 64.0802 403.202 64.0802C403.202 64.0802 392.517 63.4259 376.848 64.7135C356.753 66.3648 344.929 77.555 344.929 77.555Z" fill="#828282" stroke="#828282" stroke-width="13.4305"/>
<path d="M96.0276 70.8402L112.185 125.567L27.6817 233.082C27.6817 233.082 19.8472 216.294 11.5058 186.762C4.17395 160.803 6.98473 143.881 11.5058 117.23C15.347 94.5868 37.7546 57.3655 37.7546 57.3655C37.7546 57.3655 48.4398 56.7111 64.1087 57.9987C84.2033 59.65 96.0276 70.8402 96.0276 70.8402Z" fill="#828282" stroke="#828282" stroke-width="13.4305"/>
</svg>
